<svg width="28" height="28" viewBox="0 0 28 28" fill="none" xmlns="http://www.w3.org/2000/svg">
<path d="M22.167 12.8333H8.33033L12.5653 7.74667C12.7634 7.50842 12.8586 7.20126 12.8302 6.89276C12.8017 6.58426 12.6519 6.2997 12.4137 6.10167C12.1754 5.90364 11.8682 5.80837 11.5597 5.83682C11.2513 5.86526 10.9667 6.01509 10.7687 6.25334L4.93533 13.2533C4.89608 13.309 4.86098 13.3675 4.83033 13.4283C4.83033 13.4867 4.83033 13.5217 4.74866 13.58C4.69578 13.7138 4.66809 13.8562 4.66699 14C4.66809 14.1438 4.69578 14.2862 4.74866 14.42C4.74866 14.4783 4.74866 14.5133 4.83033 14.5717C4.86098 14.6325 4.89608 14.691 4.93533 14.7467L10.7687 21.7467C10.8784 21.8784 11.0157 21.9843 11.171 22.0569C11.3262 22.1295 11.4956 22.1669 11.667 22.1667C11.9396 22.1672 12.2038 22.0723 12.4137 21.8983C12.5318 21.8004 12.6294 21.6801 12.701 21.5444C12.7726 21.4086 12.8167 21.2601 12.8308 21.1073C12.8449 20.9545 12.8287 20.8004 12.7831 20.6539C12.7376 20.5073 12.6636 20.3712 12.5653 20.2533L8.33033 15.1667H22.167C22.4764 15.1667 22.7732 15.0438 22.992 14.825C23.2107 14.6062 23.3337 14.3094 23.3337 14C23.3337 13.6906 23.2107 13.3938 22.992 13.175C22.7732 12.9563 22.4764 12.8333 22.167 12.8333Z" fill="#201F1F"/>
</svg>
