<svg width="28" height="28" viewBox="0 0 28 28" fill="none" xmlns="http://www.w3.org/2000/svg">
<path d="M5.83317 15.1667H19.6698L15.4348 20.2533C15.3368 20.3713 15.2629 20.5074 15.2175 20.654C15.172 20.8005 15.1559 20.9545 15.17 21.1073C15.1984 21.4158 15.3483 21.7003 15.5865 21.8983C15.8248 22.0964 16.1319 22.1916 16.4404 22.1632C16.7489 22.1348 17.0335 21.9849 17.2315 21.7467L23.0648 14.7467C23.1041 14.691 23.1392 14.6325 23.1698 14.5717C23.1698 14.5133 23.2282 14.4783 23.2515 14.42C23.3044 14.2862 23.3321 14.1439 23.3332 14C23.3321 13.8562 23.3044 13.7138 23.2515 13.58C23.2515 13.5217 23.1932 13.4867 23.1698 13.4283C23.1392 13.3675 23.1041 13.309 23.0648 13.2533L17.2315 6.25335C17.1218 6.12165 16.9844 6.01574 16.8292 5.94315C16.6739 5.87056 16.5046 5.83307 16.3332 5.83335C16.0606 5.83281 15.7964 5.92775 15.5865 6.10168C15.4684 6.19962 15.3707 6.3199 15.2991 6.45564C15.2276 6.59138 15.1835 6.73991 15.1694 6.89271C15.1553 7.04552 15.1715 7.1996 15.217 7.34614C15.2626 7.49268 15.3366 7.62879 15.4348 7.74668L19.6698 12.8333H5.83317C5.52375 12.8333 5.22701 12.9563 5.00821 13.1751C4.78942 13.3938 4.6665 13.6906 4.6665 14C4.6665 14.3094 4.78942 14.6062 5.00821 14.825C5.22701 15.0438 5.52375 15.1667 5.83317 15.1667Z" fill="#201F1F"/>
</svg>
